# xmcd
#
# Track frame offsets:
#	150
#	15027
#	29053
#	43567
#	60659
#	75280
#	91020
#	105016
#	120401
#	136253
#	152596
#	166157
#	182093
#	198253
#	224114
#
# Disc length: 3275 seconds
#
# Revision: 1
# Processed by: cddbd v1.5.2PL0 Copyright (c) Steve Scherf et al.
# Submitted via: audiograbber 1.83.01
#
DISCID=ab0cc90f
DTITLE=Jörg Bausch - Starkstrom (LC 18344)
DYEAR=2010
DGENRE=Deutsch
TTITLE0=Starkstrom
TTITLE1=Dein Hin und Her
TTITLE2=Baby bleib doch hier
TTITLE3=Leuchturm
TTITLE4=24 Stunden lang
TTITLE5=Er sitzt auf meinem Thron
TTITLE6=Fluchtversuch
TTITLE7=Tiramisu
TTITLE8=Trau dich nimm mich
TTITLE9=Das absolute Highlight
TTITLE10=Hallo Taxi
TTITLE11=Du bist meine Welt
TTITLE12=Leuchturm (Radio Version)
TTITLE13=HitMix 2010
TTITLE14=Dein Hin und Her (XXL Mix Version)
EXTD=
EXTT0=
EXTT1=
EXTT2=
EXTT3=
EXTT4=
EXTT5=
EXTT6=
EXTT7=
EXTT8=
EXTT9=
EXTT10=
EXTT11=
EXTT12=
EXTT13=
EXTT14=
PLAYORDER=
